<?xml version="1.0" standalone="no"?>
<!DOCTYPE svg PUBLIC "-//W3C//DTD SVG 20010904//EN"
 "http://www.w3.org/TR/2001/REC-SVG-20010904/DTD/svg10.dtd">
<svg version="1.0" xmlns="http://www.w3.org/2000/svg"
 width="1696.000000pt" height="1696.000000pt" viewBox="0 0 1696.000000 1696.000000"
 preserveAspectRatio="xMidYMid meet">
<metadata>
Created by potrace 1.14, written by Peter Selinger 2001-2017
</metadata>
<g transform="translate(0.000000,1696.000000) scale(0.100000,-0.100000)"
fill="#000000" stroke="none">
<path d="M2732 12302 c-94 -39 -137 -93 -191 -239 -55 -149 -97 -329 -118
-502 -9 -77 -8 -355 1 -416 5 -27 8 -57 8 -65 1 -8 9 -60 19 -115 11 -55 22
-113 25 -130 4 -26 17 -84 30 -137 2 -10 6 -26 8 -35 2 -10 18 -74 35 -143 18
-69 33 -132 35 -140 2 -8 14 -53 26 -100 12 -47 24 -92 26 -100 2 -8 21 -84
43 -167 21 -84 36 -153 34 -153 -3 0 0 -7 7 -15 7 -9 10 -18 7 -22 -4 -3 -1
-15 5 -26 11 -22 19 -185 9 -202 -3 -5 -6 -14 -7 -20 -3 -19 -26 -101 -41
-144 -8 -24 -16 -51 -19 -60 -2 -9 -15 -52 -28 -96 -42 -138 -147 -479 -157
-510 -6 -16 -12 -37 -14 -45 -3 -14 -109 -354 -197 -635 -23 -71 -41 -132 -41
-135 1 -3 -5 -21 -12 -40 -7 -19 -28 -82 -45 -140 -17 -58 -40 -130 -50 -160
-10 -30 -21 -67 -24 -81 -3 -15 -14 -36 -23 -48 l-18 -22 -25 24 c-35 32 -296
227 -304 227 -4 0 -16 9 -28 20 -12 11 -34 26 -50 32 -15 7 -28 16 -28 20 0 5
-6 8 -14 8 -8 0 -16 3 -18 8 -4 9 -199 105 -248 122 -19 7 -44 16 -55 20 -11
5 -33 11 -50 15 -16 3 -48 10 -70 15 -22 5 -62 12 -90 15 -94 11 -95 12 -96
53 -4 101 16 217 43 250 6 6 8 12 5 12 -3 0 15 37 39 82 24 45 44 87 44 94 0
6 7 17 15 24 8 7 15 17 15 22 0 5 20 52 45 105 25 52 45 97 45 99 0 2 9 23 19
47 102 221 182 475 215 687 26 161 26 487 1 605 -3 11 -7 31 -9 45 -7 38 -17
81 -32 143 -1 4 -2 8 -4 10 -1 1 -3 9 -5 17 -18 85 -176 405 -207 418 -5 2 -8
10 -8 17 0 7 -3 15 -7 17 -5 2 -28 30 -53 63 -54 74 -295 315 -370 371 -56 42
-140 77 -164 68 -28 -11 -40 -151 -22 -244 3 -14 8 -43 11 -65 3 -22 7 -49 9
-60 2 -11 6 -40 10 -65 4 -25 9 -56 11 -70 5 -29 11 -68 20 -125 3 -23 8 -52
11 -65 2 -14 7 -42 9 -64 3 -21 9 -64 14 -95 6 -31 13 -76 16 -101 9 -64 15
-101 21 -134 3 -15 7 -46 9 -67 2 -21 6 -51 9 -66 7 -35 17 -107 21 -153 2
-19 6 -55 9 -80 4 -25 8 -61 11 -80 2 -19 7 -62 10 -95 4 -33 8 -78 10 -100 5
-45 12 -122 20 -217 3 -34 8 -88 10 -118 3 -30 8 -89 10 -130 3 -41 7 -104 9
-140 7 -88 15 -209 22 -305 3 -44 7 -107 9 -140 14 -200 -5 -260 -115 -363
-65 -61 -121 -90 -239 -123 -211 -60 -418 -148 -468 -199 -17 -17 -39 -49 -49
-71 -17 -39 -17 -42 0 -74 28 -51 100 -63 210 -34 57 14 176 61 182 71 3 4 12
8 21 8 9 0 52 24 97 54 82 55 96 66 176 138 44 40 185 116 196 105 6 -5 5
-245 -1 -337 -5 -77 -15 -199 -19 -235 -9 -75 -17 -142 -21 -165 -2 -14 -7
-45 -10 -70 -4 -25 -16 -90 -27 -145 -11 -55 -22 -111 -24 -125 -3 -14 -12
-52 -21 -85 -8 -33 -16 -67 -18 -76 -2 -9 -13 -49 -25 -90 -30 -99 -57 -137
-156 -214 -39 -30 -81 -66 -143 -120 -85 -75 -230 -228 -238 -253 -8 -24 -9
-36 -4 -86 3 -40 125 -69 191 -44 122 45 257 210 299 363 6 22 19 52 28 66 28
40 71 89 79 89 4 0 15 6 23 14 14 13 165 64 277 95 59 16 225 49 281 56 26 4
55 8 63 10 34 9 193 19 313 19 l129 1 3 -265 c4 -261 11 -451 20 -500 3 -14 7
-47 11 -75 3 -27 15 -88 26 -135 11 -47 23 -101 27 -120 19 -85 129 -331 161
-360 3 -3 17 -21 30 -40 36 -54 167 -179 245 -235 127 -91 295 -189 344 -200
9 -3 35 -11 58 -19 22 -9 52 -17 65 -20 12 -3 44 -9 70 -14 27 -5 85 -9 131
-8 70 1 87 5 112 24 63 50 67 64 67 248 0 159 13 205 64 239 79 51 204 181
257 266 42 69 103 203 113 253 10 45 33 183 39 231 3 28 8 65 11 83 2 17 6 47
8 65 3 17 8 66 11 107 4 41 9 86 11 100 3 14 7 50 10 80 7 82 10 95 25 92 16
-4 128 -48 174 -68 17 -7 80 -33 140 -58 61 -24 155 -64 210 -88 l100 -43 90
-181 c119 -238 147 -274 257 -334 92 -50 191 -39 262 28 74 70 53 128 -89 248
-76 64 -225 177 -265 200 -16 10 -30 22 -30 26 0 4 -6 8 -14 8 -20 0 -76 58
-92 95 -12 30 -18 61 -29 160 -3 28 -8 73 -11 100 -3 28 -7 64 -9 80 -1 17 -5
50 -8 75 -4 25 -9 75 -12 112 -3 37 -8 77 -10 90 -3 22 -14 122 -21 198 -2 19
-6 64 -10 100 -12 113 -11 205 4 202 14 -2 204 -5 215 -2 4 1 32 2 62 3 30 0
55 5 55 10 0 6 3 8 6 5 3 -3 21 -2 41 4 19 5 43 11 52 13 23 5 116 42 161 65
76 39 119 134 85 186 -8 13 -39 30 -77 42 -78 24 -142 21 -236 -12 -23 -8 -42
-13 -42 -11 0 2 -15 -2 -34 -10 -18 -8 -44 -16 -57 -19 -13 -3 -76 -21 -139
-40 -63 -20 -118 -36 -121 -36 -7 0 -4 275 4 350 2 25 7 83 11 130 4 47 9 101
11 120 3 19 7 64 10 100 3 36 8 81 10 100 2 19 7 67 10 105 3 39 8 93 11 120
5 52 10 108 19 210 3 33 7 80 10 105 3 25 7 75 10 111 3 37 7 84 10 105 13
129 17 173 20 214 6 71 15 161 20 205 4 40 10 97 20 210 8 85 14 133 27 190
10 47 24 75 123 260 76 141 187 365 200 405 1 3 5 14 10 25 53 128 102 280
119 365 3 14 8 36 11 50 11 45 6 174 -8 214 -26 72 -100 123 -162 111 -11 -2
-25 -4 -31 -4 -28 -2 -102 -83 -127 -138 -22 -50 -74 -241 -92 -338 -2 -16 -7
-43 -10 -60 -6 -33 -13 -67 -21 -105 -3 -14 -7 -41 -9 -60 -5 -50 -15 -117
-25 -180 -5 -30 -12 -71 -15 -90 -3 -19 -11 -51 -17 -70 -6 -19 -12 -42 -13
-50 -3 -27 -47 -164 -76 -236 -45 -116 -115 -255 -171 -345 -131 -211 -184
-303 -246 -429 -37 -74 -67 -137 -68 -140 0 -3 -6 -17 -12 -32 -30 -71 -35
-84 -38 -98 -2 -8 -7 -23 -13 -35 -11 -20 -39 -97 -46 -125 -2 -8 -13 -44 -24
-80 -20 -65 -46 -163 -55 -210 -3 -14 -8 -36 -11 -50 -3 -14 -7 -36 -10 -50
-2 -14 -6 -38 -9 -55 -36 -201 -23 -415 35 -541 30 -66 91 -148 153 -207 54
-51 185 -143 249 -173 20 -10 37 -21 37 -24 0 -6 -180 -136 -293 -213 -11 -6
-28 -20 -40 -30 -12 -10 -37 -28 -57 -40 -19 -11 -41 -27 -48 -34 -7 -7 -16
-13 -20 -13 -4 0 -20 -11 -36 -25 -29 -25 -46 -31 -46 -17 0 4 -7 39 -15 77
-9 39 -24 113 -35 165 -10 52 -26 127 -35 165 -9 39 -18 77 -20 85 -2 8 -16
56 -30 105 -15 50 -28 95 -29 100 -12 48 -20 72 -27 80 -4 6 -8 13 -8 18 -1 4
-1 8 -2 10 0 1 -2 10 -5 20 -2 9 -5 23 -7 30 -2 6 -20 66 -41 132 -21 66 -62
199 -93 295 -30 96 -60 191 -66 210 -6 19 -12 37 -12 40 -1 6 -94 297 -105
330 -5 14 -30 93 -55 175 -26 83 -49 157 -53 165 -3 8 -6 17 -7 20 -13 48 -59
194 -69 220 -8 19 -14 38 -15 42 -1 4 -3 13 -6 20 -42 124 -47 202 -22 333 19
97 21 108 47 265 23 136 26 153 35 220 3 25 8 58 11 73 2 16 7 50 9 75 3 26 7
63 10 82 3 19 7 58 10 85 2 28 7 71 10 98 10 93 15 143 21 222 3 44 7 96 9
115 8 73 19 340 19 455 0 164 -9 263 -40 440 -23 130 -66 199 -151 240 -51 25
-141 28 -191 7z m109 -52 c10 -6 27 -27 38 -48 22 -44 68 -190 77 -247 3 -22
8 -43 10 -47 9 -13 18 -284 18 -498 -1 -186 -8 -401 -19 -520 -2 -19 -6 -66
-9 -105 -3 -38 -9 -86 -12 -104 -3 -19 -7 -53 -10 -75 -9 -94 -14 -130 -24
-187 -6 -34 -13 -75 -14 -92 -2 -18 -7 -52 -10 -77 -4 -25 -9 -58 -11 -75 -2
-16 -4 -30 -5 -30 -1 0 -3 -13 -6 -30 -2 -16 -6 -39 -8 -50 -2 -11 -5 -33 -5
-50 -2 -38 -10 -25 -51 75 -17 41 -35 84 -40 95 -5 11 -19 47 -31 80 -11 33
-23 67 -26 75 -4 8 -7 18 -8 23 -2 4 -4 9 -5 12 -1 3 -3 8 -4 13 -1 4 -14 45
-29 92 -23 74 -45 152 -53 185 -10 44 -45 218 -49 250 -4 22 -8 51 -11 65 -24
144 -23 512 2 670 21 134 57 287 83 355 27 70 91 185 122 217 37 39 57 45 90
28z m2082 -1105 c0 -114 -22 -235 -59 -320 -10 -22 -18 -45 -20 -50 -1 -6 -25
-59 -53 -118 -28 -60 -51 -112 -51 -117 0 -4 -3 -10 -7 -12 -5 -1 -18 -23 -30
-48 l-22 -45 5 39 c3 21 8 48 10 60 3 11 7 37 9 56 2 19 6 49 9 66 3 18 8 49
11 70 3 22 10 66 16 99 5 33 11 72 12 88 1 15 4 27 7 27 3 0 6 9 7 21 3 41 56
186 96 263 38 73 41 77 50 55 5 -13 10 -73 10 -134z m-3960 -296 c54 -66 136
-195 181 -286 44 -88 120 -296 130 -358 2 -16 10 -55 16 -85 24 -120 34 -484
18 -645 -4 -38 -10 -92 -13 -119 -2 -27 -7 -56 -9 -65 -3 -9 -8 -38 -12 -66
-3 -27 -8 -53 -10 -56 -2 -3 -6 -19 -8 -36 -3 -16 -17 -72 -31 -124 -14 -52
-27 -101 -29 -109 -31 -118 -167 -430 -187 -430 -29 0 -29 -1 -34 180 -10 353
-31 840 -40 955 -3 33 -7 98 -10 145 -2 47 -7 114 -10 150 -10 115 -15 174
-20 225 -3 28 -7 75 -10 105 -3 30 -7 71 -9 90 -3 19 -7 60 -10 90 -4 30 -8
69 -10 85 -2 17 -7 55 -10 86 -4 31 -8 65 -10 75 -2 11 -7 42 -10 69 -4 28
-10 64 -13 80 -2 17 -7 44 -9 60 -10 78 -13 103 -19 140 l-7 40 79 -81 c43
-45 91 -96 106 -115z m3494 -1106 c-3 -5 -8 -46 -12 -93 -3 -47 -8 -101 -10
-120 -2 -19 -6 -75 -10 -125 -4 -49 -9 -106 -11 -125 -2 -19 -6 -69 -9 -110
-3 -41 -8 -95 -10 -120 -2 -25 -7 -79 -10 -120 -3 -41 -8 -93 -11 -115 -3 -22
-7 -67 -9 -100 -2 -33 -7 -94 -10 -135 -3 -41 -8 -100 -10 -130 -2 -30 -5 -55
-5 -55 -1 0 -3 -27 -5 -60 -3 -33 -7 -87 -10 -120 -4 -33 -8 -80 -10 -105 -2
-25 -6 -79 -10 -120 -3 -41 -8 -97 -10 -125 -3 -27 -7 -79 -11 -115 -3 -36 -7
-86 -8 -112 -1 -26 -4 -50 -8 -53 -12 -12 -86 37 -149 98 -124 122 -174 242
-195 472 -11 115 -2 278 21 375 3 14 8 36 11 50 3 14 9 39 15 56 5 17 12 42
14 54 19 98 117 378 198 565 72 167 254 495 273 495 3 0 3 -3 1 -7z m-1528
-504 c41 -126 76 -235 77 -242 2 -7 12 -36 23 -65 11 -29 19 -54 19 -55 -2 -3
22 -79 32 -102 4 -11 27 -85 50 -165 23 -80 45 -156 49 -170 25 -77 31 -101
46 -160 10 -36 19 -72 21 -80 2 -8 15 -60 30 -115 14 -55 27 -107 29 -115 2
-8 17 -71 35 -140 17 -69 33 -134 35 -145 2 -11 9 -39 15 -62 23 -95 29 -119
34 -143 3 -14 15 -63 27 -110 24 -96 28 -115 35 -150 3 -14 12 -47 20 -75 8
-27 17 -66 20 -85 3 -19 10 -40 14 -45 5 -6 7 -20 5 -30 -2 -11 -4 -28 -4 -38
-1 -10 -29 -47 -63 -83 -35 -35 -83 -87 -108 -114 -29 -32 -69 -62 -110 -82
-61 -30 -72 -32 -175 -32 -102 1 -163 6 -225 19 -14 3 -36 7 -50 10 -44 8 -64
25 -140 123 -41 52 -85 107 -97 121 -12 14 -60 76 -107 136 -47 61 -91 116
-98 124 -6 8 -35 46 -64 85 -30 39 -59 77 -65 84 -6 7 -13 30 -16 50 -5 35 16
111 153 557 29 94 27 87 43 145 7 25 14 52 17 60 3 8 5 16 5 17 0 2 6 21 14
44 9 23 17 51 20 63 2 12 31 109 65 216 33 107 62 204 65 215 2 11 21 72 40
135 20 63 37 122 39 130 2 8 11 38 19 65 9 28 31 97 48 155 18 58 33 107 34
110 10 45 19 77 23 85 4 6 7 15 8 20 4 24 24 65 31 65 5 0 42 -104 82 -231z
m-1780 -1329 c96 -29 162 -58 296 -129 75 -41 345 -220 345 -230 0 -3 12 -14
28 -23 15 -9 39 -27 53 -40 14 -13 55 -49 91 -81 84 -74 87 -87 47 -237 -16
-63 -32 -126 -35 -140 -2 -14 -7 -32 -10 -40 -3 -8 -8 -26 -11 -40 -9 -43 -11
-55 -13 -55 -1 0 -3 -7 -5 -15 -8 -45 -39 -146 -46 -154 -4 -5 -72 -10 -151
-12 -79 -1 -168 -5 -198 -8 -136 -14 -191 -21 -240 -31 -14 -3 -41 -8 -60 -11
-19 -3 -66 -12 -104 -21 -37 -8 -73 -16 -80 -17 -6 -1 -15 -4 -21 -7 -5 -4
-34 -12 -64 -19 -29 -7 -76 -21 -104 -31 -29 -11 -55 -19 -60 -19 -7 0 0 107
8 120 2 3 6 33 10 65 3 33 8 67 10 75 3 8 7 33 10 55 4 22 8 51 11 65 2 14 6
45 10 70 3 25 7 52 9 60 3 8 7 33 10 55 3 22 10 63 15 90 5 28 12 70 15 95 4
25 13 88 22 140 8 52 16 104 18 115 1 11 5 36 9 55 3 19 8 51 11 70 2 19 7 46
9 60 3 14 7 42 10 63 3 20 9 54 12 75 4 20 7 43 7 50 0 18 24 15 136 -18z
m-535 -2 c-10 -12 -28 -30 -39 -39 -11 -9 -34 -30 -51 -45 -59 -55 -156 -124
-173 -124 -6 0 -11 -4 -11 -10 0 -5 -3 -9 -7 -8 -5 1 -21 -4 -38 -11 -16 -7
-38 -14 -48 -16 -9 -2 -21 -7 -27 -10 -5 -3 -37 -8 -71 -12 -51 -5 -60 -3 -54
8 14 25 79 103 105 127 57 51 173 109 258 127 12 3 32 7 45 10 12 3 42 8 67
11 25 3 47 8 49 10 15 14 11 0 -5 -18z m4370 -261 c13 -10 14 -19 5 -53 -13
-51 -54 -95 -115 -124 -86 -42 -270 -34 -369 17 l-30 16 55 20 c30 10 64 23
75 27 11 4 47 18 80 30 33 12 74 27 90 33 17 6 35 13 40 14 6 1 28 9 50 16 48
18 98 19 119 4z m-681 -277 c3 -11 1 -23 -4 -26 -5 -3 -6 -10 -3 -16 7 -11 10
-38 19 -165 3 -48 8 -108 10 -133 2 -25 6 -85 10 -135 3 -49 8 -115 11 -145 3
-30 7 -84 9 -120 7 -97 14 -199 19 -250 4 -50 0 -64 -17 -53 -7 4 -16 8 -22 9
-5 1 -30 9 -55 17 -25 8 -119 38 -210 67 -91 29 -169 57 -174 61 -6 5 -19 9
-29 9 -32 0 -95 41 -106 69 -6 14 -13 49 -16 76 -2 28 -7 66 -10 85 -18 120
-10 259 14 260 3 0 20 13 38 28 17 15 44 36 59 47 15 11 32 25 38 30 17 15 79
63 216 165 69 52 127 97 130 100 8 10 54 40 61 40 4 0 9 -9 12 -20z m-1954
-370 c90 -113 167 -207 170 -210 4 -3 18 -21 33 -41 38 -51 25 -59 -92 -54
-52 2 -95 4 -95 5 0 0 -54 3 -120 6 -178 8 -183 9 -190 16 -6 6 4 64 40 223 2
11 7 32 10 48 12 60 14 73 19 93 2 12 9 38 14 58 6 20 8 36 5 36 -3 0 0 7 7
15 6 8 17 13 23 12 6 -1 85 -94 176 -207z m1218 -182 c1 -7 4 -33 7 -58 7 -47
13 -88 21 -153 7 -50 1 -57 -38 -47 -17 5 -50 11 -72 14 -22 2 -58 7 -80 11
-22 4 -48 7 -58 9 -27 4 -19 16 61 91 41 39 91 87 111 107 39 40 47 45 48 26z
m-1155 -204 c150 -9 162 -10 196 -28 41 -21 92 -89 143 -193 45 -91 58 -180
39 -256 -14 -50 -61 -147 -72 -147 -4 0 -8 -7 -8 -15 0 -8 -4 -15 -10 -15 -5
0 -10 -5 -10 -11 0 -5 -11 -27 -25 -47 -29 -43 -68 -143 -86 -222 -12 -56 -15
-235 -4 -280 3 -14 9 -38 11 -55 10 -59 69 -148 127 -196 31 -25 63 -46 69
-47 7 0 33 -8 58 -18 32 -12 80 -18 168 -19 67 -1 122 0 122 4 0 10 39 11 45
1 3 -5 8 -52 12 -104 6 -103 -8 -172 -49 -227 -23 -31 -78 -58 -123 -61 -58
-3 -324 125 -441 213 -75 56 -221 189 -207 189 4 0 0 6 -8 13 -79 64 -228 350
-254 487 -2 12 -6 29 -9 38 -3 9 -8 40 -11 67 -4 28 -8 61 -11 75 -9 65 -23
230 -29 350 -24 507 -24 478 6 502 25 21 30 21 361 2z m503 -39 c39 -3 93 -9
121 -13 28 -5 61 -8 72 -7 12 1 22 -1 22 -5 0 -6 -55 -69 -160 -182 l-45 -49
-66 136 c-66 133 -66 135 -40 130 14 -2 58 -7 96 -10z m456 -60 c131 -10 199
-30 226 -65 24 -31 35 -115 35 -273 0 -177 -4 -231 -26 -352 -18 -101 -14 -87
-58 -218 -21 -62 -39 -116 -40 -122 -2 -5 -6 -14 -11 -20 -4 -5 -25 -37 -46
-70 -39 -59 -122 -146 -172 -178 l-25 -17 -23 88 c-25 97 -29 113 -36 143 -2
12 -9 36 -14 53 -6 17 -13 42 -15 56 -5 21 -28 112 -41 160 -2 8 -20 78 -40
154 -20 76 -44 157 -54 180 -56 124 -54 154 15 257 93 138 218 252 255 233 4
-2 35 -6 70 -9z m-2771 -222 c-31 -96 -146 -243 -243 -308 l-37 -26 5 32 c3
18 9 37 13 43 4 6 7 13 7 16 1 22 66 127 103 167 45 48 152 127 160 118 2 -2
-1 -21 -8 -42z m2301 -278 c7 -19 17 -35 21 -35 4 0 7 -3 6 -7 -1 -9 5 -25 37
-98 12 -27 28 -68 35 -90 7 -22 15 -44 19 -50 3 -5 6 -14 7 -20 2 -5 14 -43
28 -82 13 -40 22 -73 19 -73 -3 0 -1 -6 4 -12 6 -7 16 -35 22 -63 7 -27 15
-57 17 -65 13 -51 23 -99 28 -123 2 -15 7 -35 10 -45 3 -9 7 -33 10 -53 8 -51
-21 -69 -134 -84 -40 -5 -122 19 -163 47 -35 25 -98 108 -91 119 3 5 1 9 -3 9
-12 0 -41 85 -48 140 -13 98 -5 163 36 301 36 122 111 319 121 319 4 0 12 -16
19 -35z m2042 -199 c39 -43 43 -69 17 -111 -22 -36 -54 -55 -90 -55 -33 0 -87
57 -163 173 -114 173 -124 192 -108 211 11 14 30 4 164 -86 84 -56 165 -115
180 -132z"/>
<path d="M7050 10969 c-90 -11 -122 -18 -180 -41 -54 -21 -123 -60 -146 -82
-6 -6 -27 -25 -47 -43 -19 -18 -52 -66 -73 -107 -33 -68 -37 -85 -40 -167 -1
-55 3 -108 11 -135 7 -24 11 -44 9 -44 -2 0 7 -22 21 -49 28 -53 119 -151 141
-151 8 0 14 -4 14 -9 0 -13 162 -89 290 -136 122 -44 163 -61 230 -92 97 -45
163 -94 201 -149 37 -55 41 -69 45 -168 4 -108 -21 -172 -95 -246 -31 -30 -74
-64 -96 -74 -22 -10 -48 -23 -57 -27 -9 -5 -32 -11 -50 -14 -18 -3 -49 -10
-68 -14 -42 -9 -252 -7 -335 4 -82 10 -178 32 -236 55 l-49 18 0 -67 0 -68 63
-16 c147 -39 229 -49 412 -50 117 0 167 3 231 17 250 52 408 221 419 446 11
247 -106 387 -425 507 -224 85 -282 109 -338 137 -125 65 -184 134 -200 237
-32 206 68 346 287 404 76 20 245 17 345 -7 45 -10 90 -21 101 -23 39 -9 120
-40 126 -48 6 -8 26 29 48 85 9 24 7 27 -32 41 -73 27 -131 45 -167 52 -19 3
-44 8 -55 10 -11 2 -20 4 -20 5 0 1 -106 9 -185 13 -25 1 -70 0 -100 -4z"/>
<path d="M12111 10962 c-52 -46 -47 -188 7 -216 89 -45 150 76 98 196 -14 32
-77 44 -105 20z"/>
<path d="M8090 10798 c0 -12 -1 -15 -11 -50 -5 -18 -12 -46 -14 -63 -4 -25
-10 -53 -20 -95 -1 -3 -5 -24 -9 -47 -8 -43 -18 -50 -96 -68 -69 -15 -110 -29
-111 -36 -1 -5 -2 -22 -3 -39 l-1 -30 101 0 101 0 0 -472 c1 -528 3 -556 46
-643 10 -22 31 -53 46 -68 23 -26 89 -67 116 -73 59 -14 111 -20 165 -18 57 1
86 5 150 19 8 2 20 4 25 4 6 1 11 24 12 51 l2 50 -72 -6 c-126 -10 -151 -10
-197 -1 -52 11 -94 40 -119 82 -41 69 -45 110 -46 603 l-1 472 197 0 c220 0
208 -5 200 73 -3 31 -7 38 -21 34 -10 -2 -23 -1 -30 3 -7 4 -24 5 -39 1 -14
-5 -38 -4 -53 0 -16 4 -28 4 -28 1 0 -8 -125 -6 -146 2 -8 3 -14 2 -14 -2 0
-5 -15 -6 -33 -4 l-33 4 1 151 c0 84 -1 157 -3 164 -4 13 -62 15 -62 1z"/>
<path d="M11299 10796 c0 -6 -2 -18 -4 -26 -3 -17 -45 -216 -50 -243 -6 -28
-13 -34 -47 -41 -82 -15 -159 -39 -159 -49 1 -4 1 -21 1 -38 0 -23 4 -30 18
-28 9 1 54 1 99 0 l83 -1 0 -117 c0 -65 0 -136 -1 -158 0 -22 0 -76 0 -120 1
-44 1 -98 0 -120 -1 -37 0 -172 1 -205 1 -8 1 -53 0 -100 0 -120 5 -177 24
-239 43 -145 148 -214 326 -214 113 0 219 22 212 46 -1 4 -2 23 -2 42 l0 35
-77 -7 c-131 -12 -191 -7 -239 18 -37 19 -85 73 -90 102 -1 4 -2 8 -4 10 -2 2
-6 18 -16 62 -3 17 -7 240 -8 497 l-1 468 200 2 200 3 0 50 c0 48 -1 50 -30
53 -40 3 -88 2 -93 -2 -2 -2 -17 0 -33 4 -16 5 -29 6 -29 2 0 -9 -114 -7 -129
2 -6 4 -11 4 -11 -1 0 -4 -16 -8 -35 -8 -30 0 -35 3 -36 25 0 14 -2 88 -2 165
l-2 140 -32 1 c-18 1 -33 -4 -34 -10z"/>
<path d="M9327 10504 c-1 -1 -36 -5 -77 -8 -41 -4 -99 -14 -129 -23 -29 -8
-61 -17 -70 -18 -9 -2 -17 -4 -18 -5 -2 -2 -6 -3 -10 -4 -23 -6 -113 -49 -112
-55 0 -3 10 -27 22 -53 19 -39 25 -45 40 -37 9 6 17 7 17 3 0 -4 9 1 20 11 11
10 20 15 20 10 0 -4 6 -3 13 2 11 10 72 32 89 34 4 0 22 5 40 10 52 16 87 21
175 21 171 1 263 -65 313 -225 17 -55 22 -244 7 -250 -7 -2 -52 -5 -102 -6
-210 -5 -286 -11 -372 -27 -21 -4 -45 -8 -53 -9 -8 -1 -24 -6 -35 -10 -29 -10
-50 -16 -53 -15 -1 0 -30 -14 -64 -32 -103 -55 -195 -165 -201 -239 -1 -10 -4
-19 -7 -19 -3 0 -5 -37 -4 -83 6 -210 108 -332 312 -371 76 -15 174 -13 242 4
25 6 55 13 68 16 25 5 81 35 126 67 34 24 126 118 126 130 0 13 27 8 27 -5 0
-11 15 -108 27 -177 3 -18 39 -32 56 -21 7 4 18 6 25 4 18 -7 13 1004 -4 1066
-8 25 -14 50 -15 55 -7 35 -49 106 -85 143 -49 50 -100 77 -179 97 -48 12
-168 25 -175 19z m347 -785 c-3 -195 -34 -288 -125 -381 -85 -87 -180 -123
-331 -127 -144 -4 -244 47 -288 145 -31 72 -29 187 6 256 36 70 117 126 224
153 6 1 64 13 98 20 13 2 65 7 115 11 51 3 93 7 94 8 1 0 48 2 105 4 l103 3
-1 -92z"/>
<path d="M10674 10495 c-106 -25 -169 -65 -234 -149 -22 -28 -43 -55 -48 -61
-4 -5 -11 -18 -15 -28 -12 -32 -23 -10 -26 50 -3 72 -8 156 -10 165 0 3 -18 6
-39 5 -20 -1 -43 2 -50 7 -7 4 -12 2 -13 -6 -5 -75 -3 -1327 3 -1339 9 -20 37
-28 63 -19 11 4 26 3 32 -2 9 -7 15 -5 19 6 3 8 7 208 8 443 2 461 4 476 60
593 26 55 29 59 91 124 93 97 181 118 394 94 25 -3 29 4 44 79 6 31 6 31 -46
38 -85 12 -180 12 -233 0z"/>
<path d="M13217 10504 c-1 -1 -29 -4 -62 -8 -121 -13 -255 -83 -324 -170 -24
-30 -31 -34 -32 -20 0 11 -2 26 -3 34 -2 8 -6 39 -10 69 -7 60 -13 74 -27 66
-5 -4 -9 -2 -9 3 0 5 -17 6 -37 3 l-38 -6 0 -675 c0 -637 1 -675 18 -674 9 1
17 -1 17 -5 0 -5 22 -6 76 -2 7 1 10 128 11 409 0 444 4 506 34 596 61 183
188 262 421 264 213 2 319 -73 355 -248 9 -47 12 -159 12 -563 l1 -448 23 -8
c12 -5 26 -5 31 -1 5 5 19 5 32 0 15 -6 26 -5 30 2 9 13 8 926 0 998 -11 87
-52 196 -94 246 -54 64 -150 114 -247 130 -38 6 -173 12 -178 8z"/>
<path d="M14470 10490 c-102 -22 -162 -53 -225 -116 -87 -87 -125 -191 -120
-329 4 -100 9 -122 42 -191 30 -64 102 -139 162 -170 l41 -21 -46 -34 c-95
-71 -141 -169 -119 -254 7 -27 26 -56 62 -91 l53 -51 -46 -13 c-65 -19 -156
-80 -198 -135 -20 -27 -36 -51 -37 -54 -1 -11 -8 -36 -17 -67 -29 -94 2 -231
71 -305 98 -106 233 -151 457 -152 360 -2 606 124 659 338 3 11 5 63 5 115 1
83 -3 102 -26 150 -49 99 -122 149 -273 186 -16 4 -127 8 -245 10 -118 2 -236
8 -263 15 -107 25 -127 144 -40 240 37 41 90 76 108 70 15 -4 196 -2 220 3
190 40 302 130 354 282 44 133 26 279 -51 405 -15 25 -28 48 -28 51 0 3 15 5
33 5 65 2 232 14 235 18 9 9 7 67 -2 74 -10 8 -42 11 -111 11 -11 0 -45 -1
-75 -3 -30 -1 -63 1 -72 5 -10 5 -18 5 -18 1 0 -10 -52 -9 -68 1 -6 4 -20 3
-29 -1 -21 -10 -54 -10 -69 -1 -38 24 -231 28 -324 8z m235 -95 c50 -11 109
-40 147 -74 33 -28 72 -91 73 -116 0 -5 4 -15 8 -21 26 -42 14 -232 -19 -296
-58 -112 -175 -168 -340 -162 -170 7 -286 96 -319 245 -10 44 -9 138 1 181 4
18 8 35 9 38 21 89 133 188 233 206 15 3 28 7 30 8 5 5 144 -2 177 -9z m150
-1219 c39 -4 76 -13 83 -18 6 -6 12 -8 12 -4 0 9 76 -33 92 -52 48 -56 63
-191 30 -275 -16 -39 -114 -149 -130 -145 -4 1 -18 -4 -31 -11 -102 -57 -427
-78 -561 -36 -144 44 -210 131 -205 271 6 154 95 245 265 269 25 4 46 7 47 8
5 6 340 -1 398 -7z"/>
<path d="M12097 10473 c-3 -3 -6 -305 -6 -673 -1 -630 0 -668 16 -675 21 -8
102 -12 104 -5 4 14 6 1327 2 1342 -3 13 -16 17 -57 17 -30 0 -56 -3 -59 -6z"/>
<path d="M6689 8195 c-1 -13 -1 -2234 0 -2259 1 -13 6 -17 21 -13 11 3 22 1
25 -4 3 -4 17 -4 30 1 14 5 25 6 25 2 0 -8 143 -8 156 0 5 3 18 2 29 -2 11 -4
29 -4 40 0 11 4 29 4 40 0 11 -4 30 -4 43 1 12 5 22 5 22 0 0 -4 11 -6 25 -3
23 4 25 9 26 61 0 31 0 251 0 489 0 237 3 433 7 433 22 5 892 4 893 -1 1 -3 2
-222 3 -487 1 -365 5 -486 14 -495 9 -9 12 -9 12 0 0 8 7 9 23 3 12 -5 32 -5
44 0 13 5 25 4 28 -1 3 -6 15 -6 30 0 13 5 26 6 29 2 3 -5 30 -5 61 -2 31 3
58 3 61 -2 3 -4 16 -3 29 2 15 6 27 6 30 0 3 -6 15 -6 30 0 13 5 26 6 29 2 3
-5 21 -6 40 -4 20 2 33 9 30 14 -3 5 -6 71 -5 146 0 75 1 238 0 362 0 124 0
232 0 240 0 22 0 1103 0 1115 0 6 0 87 1 180 0 94 1 184 0 200 l0 30 -233 -1
c-127 -1 -236 -2 -242 -3 -7 -1 -10 -156 -10 -446 l1 -445 -452 0 -452 0 -1
408 c0 224 0 425 -1 447 l0 40 -240 0 c-155 0 -240 -3 -241 -10z"/>
<path d="M9139 8205 c-6 0 -2 -2278 5 -2282 8 -6 80 -6 149 0 21 1 41 -1 43
-5 3 -4 16 -3 29 2 15 6 27 6 30 0 3 -6 15 -6 30 0 15 6 27 6 30 0 3 -6 15 -6
29 0 13 5 26 6 29 3 8 -7 91 -8 103 -1 5 3 18 2 29 -2 11 -4 30 -4 43 1 12 5
22 5 22 0 0 -5 18 -5 40 -1 22 4 43 4 46 -1 2 -4 16 -4 29 1 13 5 27 6 29 1 3
-4 25 -5 49 -1 24 3 52 3 63 0 10 -4 29 -4 42 1 12 5 22 5 22 0 0 -5 18 -5 40
-1 22 4 43 4 46 -1 2 -4 16 -4 29 1 13 5 27 6 29 1 3 -4 25 -5 49 -1 25 3 54
3 65 -1 12 -5 24 -4 27 1 4 6 13 7 24 1 9 -5 23 -6 30 -2 7 5 28 5 47 1 19 -4
34 -5 35 -1 4 32 3 385 -2 393 -4 6 -163 9 -416 9 l-410 0 0 294 1 294 310 0
c171 0 345 0 386 0 l75 1 -1 193 c-1 105 -2 195 -3 198 0 3 -170 5 -377 5
-207 -1 -379 1 -384 4 -4 3 -7 115 -6 250 l1 245 408 1 c278 0 411 4 415 11 5
8 8 356 3 383 -1 4 -964 7 -1312 5z"/>
<path d="M10934 8195 c-2 -5 -3 -518 -2 -1140 l3 -1130 28 0 c15 1 27 -2 27
-6 0 -4 14 -4 30 1 17 5 30 6 30 2 0 -7 237 -6 323 1 21 1 41 -1 43 -5 3 -4
16 -3 29 2 15 6 25 6 25 0 0 -5 12 -5 30 0 17 5 32 5 35 0 3 -5 16 -5 30 0 14
5 25 6 25 2 0 -8 148 -7 156 1 4 3 16 2 29 -3 13 -5 25 -7 28 -4 8 8 88 10 93
2 3 -4 16 -3 29 2 15 6 27 6 30 0 3 -6 15 -6 30 0 15 6 27 6 30 0 3 -6 15 -6
29 0 13 5 26 6 29 3 3 -3 25 -5 49 -4 50 1 61 1 147 1 35 -1 66 2 69 5 7 7 7
384 0 391 -3 3 -212 6 -464 7 l-458 2 -1 940 0 940 -239 0 c-151 0 -240 -4
-242 -10z"/>
<path d="M12740 7068 c0 -835 3 -1139 11 -1144 11 -7 145 -8 222 -2 21 2 41 0
43 -4 3 -4 16 -3 29 2 14 5 25 6 25 1 0 -5 15 -5 34 -1 19 4 39 4 46 0 6 -4
26 -4 43 -1 l32 7 0 402 0 402 32 0 c113 0 361 9 373 13 8 3 33 8 55 11 168
23 329 100 440 211 138 139 195 305 189 548 -1 67 -5 133 -8 147 -3 14 -8 35
-10 48 -13 61 -67 182 -91 202 -8 7 -15 16 -15 21 0 16 -93 101 -152 140 -98
63 -240 108 -393 125 -27 3 -242 7 -477 8 l-428 1 0 -1137z m805 733 c0 -1 12
-4 27 -6 130 -17 213 -91 247 -218 15 -60 6 -195 -18 -250 -38 -88 -131 -156
-248 -183 -15 -3 -96 -8 -178 -11 l-150 -5 1 338 c1 187 2 340 3 340 2 3 316
-3 316 -5z"/>
</g>
</svg>
