<svg width="20" height="20" viewBox="0 0 20 20" fill="none" xmlns="http://www.w3.org/2000/svg">
<path fill-rule="evenodd" clip-rule="evenodd" d="M10 0C7.28416 0 6.94362 0.0115116 5.87701 0.0601777C4.81263 0.108725 4.08569 0.277786 3.44962 0.525007C2.79203 0.780524 2.23436 1.12246 1.67839 1.67839C1.12246 2.23436 0.780524 2.79203 0.525007 3.44962C0.277786 4.08569 0.108725 4.81263 0.0601777 5.87701C0.0115116 6.94362 0 7.28416 0 10C0 12.7158 0.0115116 13.0564 0.0601777 14.123C0.108725 15.1874 0.277786 15.9143 0.525007 16.5504C0.780524 17.208 1.12246 17.7656 1.67839 18.3216C2.23436 18.8775 2.79203 19.2195 3.44962 19.475C4.08569 19.7222 4.81263 19.8913 5.87701 19.9398C6.94362 19.9885 7.28416 20 10 20C12.7158 20 13.0564 19.9885 14.123 19.9398C15.1874 19.8913 15.9143 19.7222 16.5504 19.475C17.208 19.2195 17.7656 18.8775 18.3216 18.3216C18.8775 17.7656 19.2195 17.208 19.475 16.5504C19.7222 15.9143 19.8913 15.1874 19.9398 14.123C19.9885 13.0564 20 12.7158 20 10C20 7.28416 19.9885 6.94362 19.9398 5.87701C19.8913 4.81263 19.7222 4.08569 19.475 3.44962C19.2195 2.79203 18.8775 2.23436 18.3216 1.67839C17.7656 1.12246 17.208 0.780524 16.5504 0.525007C15.9143 0.277786 15.1874 0.108725 14.123 0.0601777C13.0564 0.0115116 12.7158 0 10 0ZM9.99998 1.80182C12.6701 1.80182 12.9864 1.81202 14.0408 1.86014C15.0158 1.90459 15.5453 2.0675 15.8977 2.20445C16.3644 2.38586 16.6976 2.60255 17.0475 2.9525C17.3974 3.30242 17.6141 3.63554 17.7955 4.10231C17.9325 4.45468 18.0954 4.98418 18.1398 5.95917C18.188 7.01363 18.1982 7.32992 18.1982 10C18.1982 12.6701 18.188 12.9864 18.1398 14.0409C18.0954 15.0159 17.9325 15.5454 17.7955 15.8977C17.6141 16.3645 17.3974 16.6976 17.0475 17.0475C16.6976 17.3975 16.3644 17.6142 15.8977 17.7956C15.5453 17.9325 15.0158 18.0955 14.0408 18.1399C12.9865 18.188 12.6703 18.1982 9.99998 18.1982C7.32965 18.1982 7.01344 18.188 5.9591 18.1399C4.98411 18.0955 4.45462 17.9325 4.10225 17.7956C3.63547 17.6142 3.30235 17.3975 2.95244 17.0475C2.60253 16.6976 2.38579 16.3645 2.20438 15.8977C2.06744 15.5454 1.90453 15.0159 1.86007 14.0409C1.81196 12.9864 1.80176 12.6701 1.80176 10C1.80176 7.32992 1.81196 7.01363 1.86007 5.95917C1.90453 4.98418 2.06744 4.45468 2.20438 4.10231C2.38579 3.63554 2.60249 3.30242 2.95244 2.9525C3.30235 2.60255 3.63547 2.38586 4.10225 2.20445C4.45462 2.0675 4.98411 1.90459 5.9591 1.86014C7.01356 1.81202 7.32985 1.80182 9.99998 1.80182ZM4.8645 10C4.8645 7.16393 7.16356 4.86487 9.99965 4.86487C12.8357 4.86487 15.1348 7.16393 15.1348 10C15.1348 12.8361 12.8357 15.1351 9.99965 15.1351C7.16356 15.1351 4.8645 12.8361 4.8645 10ZM10.0001 13.3333C8.15916 13.3333 6.66678 11.8409 6.66678 10C6.66678 8.15903 8.15916 6.66665 10.0001 6.66665C11.8411 6.66665 13.3335 8.15903 13.3335 10C13.3335 11.8409 11.8411 13.3333 10.0001 13.3333ZM15.3382 5.86198C16.0009 5.86198 16.5382 5.32475 16.5382 4.662C16.5382 3.99925 16.0009 3.46198 15.3382 3.46198C14.6755 3.46198 14.1382 3.99925 14.1382 4.662C14.1382 5.32475 14.6755 5.86198 15.3382 5.86198Z" fill="#477FB5"/>
</svg>
