<svg width="106" height="48" viewBox="0 0 106 48" fill="none" xmlns="http://www.w3.org/2000/svg">
<path d="M26.493 30.3795C23.1674 28.6933 22.9479 26.7992 23.6794 23.4156C24.2463 20.9823 25.2511 18.6722 26.6449 16.5977C27.8133 14.7635 28.5324 12.68 28.7439 10.5162C28.9013 9.45078 29.1155 8.39448 29.3853 7.35179C29.6498 6.26139 30.2294 5.72181 30.8934 5.8567C31.5574 5.9916 31.8556 6.78973 31.6418 7.90823C31.2142 10.1003 30.1394 12.0225 29.0984 13.956C28.8915 14.3014 28.7521 14.6829 28.6876 15.0802C28.4119 17.7387 28.1699 20.3973 27.9223 23.0558C27.7647 24.742 27.6015 26.4282 27.4609 28.1481C27.4215 28.6371 27.4609 29.1261 27.4609 29.6432C28.4287 29.3509 29.3403 29.0812 30.2744 28.8057C30.5535 28.7129 30.8515 28.6917 31.141 28.7439C31.4618 28.817 31.9569 28.9968 31.9963 29.1992C32.0111 29.3774 31.9813 29.5565 31.9096 29.7203C31.8378 29.8841 31.7265 30.0276 31.5855 30.1378C30.9624 30.4714 30.2929 30.7101 29.5992 30.846C28.9215 30.9058 28.2398 30.9058 27.5622 30.846C27.5622 31.3125 27.6128 31.8184 27.6634 32.3186C27.8379 34.0048 28.0292 35.7528 28.2262 37.4728C28.2489 37.6789 28.3232 37.8759 28.4422 38.0459C28.5612 38.2158 28.721 38.3531 28.907 38.4451C29.7429 39.003 30.5383 39.6191 31.2873 40.2887C31.6081 40.5697 31.85 41.07 31.4505 41.4128C31.2956 41.5607 31.1115 41.6747 30.9099 41.7473C30.7083 41.8199 30.4938 41.8495 30.2801 41.8344C29.7459 41.6941 29.2707 41.3869 28.9239 40.9576C28.5226 40.3143 28.1744 39.6395 27.8829 38.9397C27.7872 38.7486 27.7028 38.4732 27.5396 38.3777C26.2342 37.8156 24.9118 37.2536 23.6007 36.7533C23.4262 38.2203 23.3193 39.5636 23.0942 40.8845C22.9836 41.6806 22.7034 42.4437 22.2724 43.1225C21.8414 43.8012 21.2697 44.3797 20.5958 44.8189C20.4996 44.9032 20.4212 45.0057 20.3652 45.1205C20.3091 45.2354 20.2766 45.3602 20.2694 45.4878C20.2188 45.9543 20.2694 46.432 20.2694 46.9042C20.2867 47.0543 20.2691 47.2063 20.218 47.3485C20.1669 47.4907 20.0837 47.6193 19.9749 47.7242C19.8661 47.8291 19.7345 47.9076 19.5904 47.9535C19.4463 47.9994 19.2935 48.0115 19.144 47.989C17.4052 47.989 16.0209 47.1402 14.6929 46.1398C12.8416 44.7459 12.1945 42.7224 11.8794 40.581C11.6937 39.1871 11.75 37.7707 11.7049 36.3543C11.7049 36.0901 11.7049 35.8259 11.7049 35.5055C9.63394 35.4565 7.57011 35.7665 5.60514 36.4217C5.28402 36.4991 4.9888 36.6592 4.74889 36.886C4.50898 37.1128 4.33275 37.3984 4.23775 37.7144C4.11769 38.1741 3.90639 38.605 3.6164 38.9816C3.32641 39.3582 2.96364 39.6727 2.54961 39.9065C2.37743 39.9968 2.18782 40.0491 1.99363 40.0597C1.79945 40.0704 1.60525 40.0392 1.42419 39.9683C0.974018 39.6985 1.12595 39.1365 1.42419 38.8442C2.13952 38.0817 2.91069 37.3734 3.73131 36.7252C4.10072 36.4828 4.37656 36.122 4.51348 35.7023C5.21877 33.2406 5.59715 30.697 5.6389 28.1369C5.6389 27.8952 5.6389 27.6535 5.6389 27.1758C5.26473 27.2922 4.90724 27.4565 4.57537 27.6648C3.70288 28.5739 2.60041 29.2303 1.3848 29.5645C0.87273 29.6713 0.236865 29.7894 0.0117802 29.2273C-0.0782537 28.9912 0.366289 28.3449 0.71517 28.1819C1.6557 27.7264 2.63979 27.3667 3.65253 27.1083C4.59226 26.8722 5.65015 25.8437 5.58263 24.8601C5.39131 22.0104 5.22249 19.1102 4.89049 16.238C4.55849 13.3659 4.03517 10.5162 3.62439 7.6553C3.63747 7.34278 3.70409 7.03481 3.82134 6.74476C4.11455 6.79724 4.39755 6.89589 4.65978 7.03703C6.98941 8.89746 8.76758 11.1289 9.229 14.1752C9.53525 16.3902 9.26789 18.6466 8.45246 20.7289C7.89979 22.1965 7.25321 23.6271 6.51673 25.0118C6.20061 25.6362 6.09031 26.3445 6.20161 27.0352C8.93076 27.1645 10.9059 28.8001 12.9542 30.3795C13.0094 30.3061 13.0565 30.227 13.0948 30.1435C14.4397 25.8212 15.7959 21.5045 17.1013 17.1767C17.2103 16.702 17.2006 16.2078 17.0732 15.7378C16.5105 13.3434 15.7846 10.9827 15.3344 8.56585C14.8451 6.11593 15.0817 3.57665 16.0153 1.25902C16.1179 0.915712 16.3224 0.611568 16.6017 0.386775C16.881 0.161982 17.222 0.0271181 17.5796 2.17533e-06C17.9566 -0.000622358 18.3213 0.133249 18.6081 0.377487C18.8949 0.621726 19.085 0.960266 19.144 1.33209C19.3901 2.46915 19.4997 3.63145 19.4704 4.7944C19.3488 8.40627 18.9329 12.0023 18.2268 15.5467C18.1887 16.0119 18.26 16.4796 18.435 16.9125C19.6673 20.8469 20.9559 24.8095 22.1601 28.7664C22.5596 30.0704 22.7791 31.425 23.0886 32.7908L26.493 30.3795ZM17.8216 17.7387C17.7519 17.8378 17.6917 17.9432 17.6415 18.0535C16.3923 22.224 15.1337 26.4001 13.8657 30.5819C13.8544 30.7037 13.8675 30.8266 13.9042 30.9434C13.9409 31.0602 14.0005 31.1685 14.0796 31.262C15.0474 32.521 16.0322 33.7631 17.0226 34.9997C17.1239 35.129 17.2645 35.292 17.4052 35.3144C18.902 35.5842 20.4382 35.9833 21.468 34.3252C21.5587 34.1951 21.6781 34.0874 21.8169 34.0105C21.9696 33.9159 22.0828 33.7693 22.1356 33.5977C22.1884 33.4262 22.1771 33.2413 22.1039 33.0774C21.3948 30.3795 20.8321 27.6648 20.0893 24.995C19.431 22.6062 18.615 20.2343 17.8216 17.7387ZM11.8287 35.0334C12.1439 33.8137 12.4533 32.6503 12.7403 31.4755C12.7532 31.3948 12.7483 31.3123 12.7259 31.2336C12.7036 31.155 12.6643 31.0822 12.6109 31.0203C11.2235 29.6924 9.62889 28.599 7.88975 27.7828C7.38762 27.6024 6.87452 27.4541 6.35354 27.3388C5.87524 30.3514 5.41944 33.2236 4.96365 36.0957C7.16565 35.317 9.49407 34.9567 11.8287 35.0334V35.0334ZM19.8361 45.2405C19.5967 45.2953 19.3543 45.3366 19.1102 45.3641C17.2251 45.4428 16.1954 44.6391 16.0603 42.9248C15.9346 41.7945 16.2312 40.6576 16.8931 39.7323C17.861 38.4676 17.574 37.4222 16.7693 36.3093C16.7131 36.2362 16.6962 36.1294 16.6287 36.0788C16.4542 35.944 16.2685 35.7416 16.066 35.7247C15.1487 35.6404 14.2259 35.6348 13.303 35.5561C12.836 35.5168 12.6278 35.6742 12.6559 36.1463C12.7516 37.7763 12.746 39.4231 12.9654 41.0362C13.1015 42.3625 13.5823 43.6303 14.3601 44.7138C15.1379 45.7973 16.1857 46.659 17.3996 47.2133C18.0467 47.5225 18.8064 48.0789 19.4647 47.5281C20.1231 46.9773 19.9487 46.0892 19.8361 45.2405ZM17.7766 14.6136C17.9004 13.8155 18.0354 13.0174 18.1367 12.2193C18.6251 9.15546 18.7742 6.04724 18.5813 2.95083C18.4999 2.1988 18.3104 1.46241 18.0186 0.764408C17.816 0.258551 17.4052 0.236069 17.0957 0.702581C16.7629 1.17565 16.5048 1.69695 16.3304 2.24826C15.0981 6.55366 16.0097 10.623 17.7766 14.6136ZM6.12846 24.1013H6.30853C6.46033 23.8615 6.59933 23.6138 6.72493 23.3594C7.92533 20.684 8.43048 17.7494 8.19361 14.8272C8.06873 12.7968 7.32888 10.8523 6.07219 9.25156C5.69517 8.78505 5.25063 8.36912 4.83985 7.93071C5.7852 13.3434 5.9709 18.7223 6.12846 24.1013ZM27.8435 15.9907C26.4607 18.1517 25.4383 20.5226 24.8161 23.0109C24.421 24.3973 24.3842 25.8612 24.7092 27.2657C24.8508 27.7835 25.1005 28.2656 25.4419 28.6802C25.7832 29.0948 26.2086 29.4326 26.69 29.6713C27.0726 25.1411 27.4496 20.6671 27.8435 15.9907ZM20.3426 44.5098C21.1064 44.0143 21.6965 43.2933 22.0307 42.447C22.5226 41.1639 22.7541 39.7959 22.7116 38.4227C22.7116 36.4442 22.6778 36.4048 20.7083 36.2418C20.511 36.2093 20.3088 36.2557 20.1456 36.3711C19.5697 36.9068 19.0834 37.5311 18.7051 38.2203C18.5419 38.6194 18.9639 39.2601 19.1271 39.7885L19.144 39.9065L20.3426 44.5098ZM27.3708 37.4896C27.1964 35.2414 27.0332 33.1055 26.8531 30.7449C25.6264 31.6779 24.5348 32.4929 23.4769 33.336C23.407 33.4007 23.351 33.4789 23.3123 33.5658C23.2737 33.6528 23.2531 33.7467 23.2518 33.8418C23.2834 34.5136 23.3491 35.1833 23.4487 35.8484C23.4681 35.9488 23.5101 36.0435 23.5715 36.1253C23.633 36.207 23.7122 36.2738 23.8032 36.3205C24.9455 36.7308 26.1216 37.0962 27.3708 37.4896ZM19.8192 44.7402C19.4927 42.7885 18.8823 40.8949 18.0073 39.1196C17.6019 40.0247 17.2816 40.9655 17.0507 41.9299C16.8873 42.727 17.0321 43.5564 17.4559 44.2512C17.5733 44.4446 17.7294 44.6117 17.9144 44.7422C18.0994 44.8727 18.3093 44.9637 18.531 45.0096C18.7527 45.0554 18.9815 45.0552 19.2032 45.0089C19.4248 44.9625 19.6345 44.8711 19.8192 44.7402V44.7402ZM13.6294 31.9308L13.4212 32.0039L12.7853 35.0222L15.9984 35.1964L16.1222 35.0278L13.6294 31.9308ZM29.2109 11.9157C30.0381 10.1452 31.1691 8.45905 30.6796 6.33446C29.5485 8.02065 29.6048 10.0328 29.2109 11.9157ZM27.9448 30.1097C29.194 30.773 30.5445 30.5819 31.0847 29.8287C31.1735 29.6398 31.225 29.4356 31.2367 29.2273C31.051 29.1879 30.8428 29.0755 30.674 29.1261C29.7624 29.4353 28.8564 29.7894 27.9448 30.1097ZM28.8395 39.2039L28.6426 39.4006C29.059 40.047 29.4472 40.7159 29.9143 41.3229C30.1619 41.6545 30.5783 41.885 30.9441 41.4465C31.3098 41.0081 31.0341 40.7102 30.7133 40.4742C30.1056 40.0245 29.4641 39.6255 28.8395 39.2039V39.2039ZM3.9789 27.4624C2.65653 27.6254 1.39042 27.884 0.540729 29.3228C2.14446 29.3004 3.03917 28.3392 3.9789 27.4624ZM19.6054 36.0507L17.4559 35.8259L18.2887 37.5121L19.6054 36.0507ZM3.84948 37.366C3.36864 37.5862 2.94789 37.9186 2.62274 38.3354C2.29759 38.7521 2.07758 39.2408 1.98127 39.7604C2.88778 39.229 3.55777 38.3729 3.8551 37.366H3.84948ZM22.5203 36.0395L22.2783 34.2859L20.7196 35.7585L22.5203 36.0395Z" fill="#477FB5"/>
<path d="M47.9219 17.0547C47.9219 18.0078 47.5703 18.763 46.8672 19.3203C46.1693 19.8776 45.2396 20.1562 44.0781 20.1562C42.6823 20.1562 41.612 20.0026 40.8672 19.6953V18.8984C41.6901 19.2474 42.7396 19.4219 44.0156 19.4219C44.9531 19.4219 45.6953 19.2083 46.2422 18.7812C46.7943 18.349 47.0703 17.7839 47.0703 17.0859C47.0703 16.6536 46.9792 16.2969 46.7969 16.0156C46.6146 15.7292 46.3177 15.4688 45.9062 15.2344C45.4948 15 44.8906 14.7474 44.0938 14.4766C42.9271 14.0755 42.1198 13.6432 41.6719 13.1797C41.2292 12.7109 41.0078 12.0885 41.0078 11.3125C41.0078 10.4583 41.3411 9.76302 42.0078 9.22656C42.6797 8.6849 43.5417 8.41406 44.5938 8.41406C45.6667 8.41406 46.6745 8.61719 47.6172 9.02344L47.3281 9.71094C46.3802 9.3151 45.474 9.11719 44.6094 9.11719C43.7656 9.11719 43.0938 9.3125 42.5938 9.70312C42.0938 10.0938 41.8438 10.625 41.8438 11.2969C41.8438 11.7188 41.9193 12.0651 42.0703 12.3359C42.2266 12.6068 42.4792 12.8516 42.8281 13.0703C43.1771 13.2839 43.776 13.5417 44.625 13.8438C45.5156 14.151 46.1849 14.4505 46.6328 14.7422C47.0807 15.0286 47.4062 15.3568 47.6094 15.7266C47.8177 16.0911 47.9219 16.5339 47.9219 17.0547ZM52.3828 19.4688C52.8724 19.4688 53.2995 19.4271 53.6641 19.3438V19.9688C53.2891 20.0938 52.8568 20.1562 52.3672 20.1562C51.6172 20.1562 51.0625 19.9557 50.7031 19.5547C50.349 19.1536 50.1719 18.5234 50.1719 17.6641V12.1797H48.9141V11.7266L50.1719 11.375L50.5625 9.45312H50.9609V11.5078H53.4531V12.1797H50.9609V17.5547C50.9609 18.2057 51.0755 18.6875 51.3047 19C51.5339 19.3125 51.8932 19.4688 52.3828 19.4688ZM60.6562 20L60.4609 18.6562H60.3984C59.9714 19.2031 59.5312 19.5911 59.0781 19.8203C58.6302 20.0443 58.099 20.1562 57.4844 20.1562C56.651 20.1562 56.0026 19.9427 55.5391 19.5156C55.0755 19.0885 54.8438 18.4974 54.8438 17.7422C54.8438 16.9141 55.1875 16.2708 55.875 15.8125C56.5677 15.3542 57.5677 15.112 58.875 15.0859L60.4922 15.0391V14.4766C60.4922 13.6693 60.3281 13.0599 60 12.6484C59.6719 12.237 59.1432 12.0312 58.4141 12.0312C57.6276 12.0312 56.8125 12.25 55.9688 12.6875L55.6797 12.0156C56.612 11.5781 57.5339 11.3594 58.4453 11.3594C59.3776 11.3594 60.0729 11.6016 60.5312 12.0859C60.9948 12.5703 61.2266 13.3255 61.2266 14.3516V20H60.6562ZM57.5312 19.4531C58.4375 19.4531 59.151 19.1953 59.6719 18.6797C60.1979 18.1589 60.4609 17.4375 60.4609 16.5156V15.6797L58.9766 15.7422C57.7839 15.7995 56.9323 15.987 56.4219 16.3047C55.9167 16.6172 55.6641 17.1068 55.6641 17.7734C55.6641 18.3047 55.8255 18.7188 56.1484 19.0156C56.4766 19.3073 56.9375 19.4531 57.5312 19.4531ZM67.3281 11.3438C67.6875 11.3438 68.0729 11.3802 68.4844 11.4531L68.3359 12.1953C67.9818 12.1068 67.6146 12.0625 67.2344 12.0625C66.5104 12.0625 65.9167 12.3698 65.4531 12.9844C64.9896 13.599 64.7578 14.375 64.7578 15.3125V20H63.9844V11.5078H64.6406L64.7188 13.0391H64.7734C65.1224 12.4141 65.4948 11.9766 65.8906 11.7266C66.2865 11.4714 66.7656 11.3438 67.3281 11.3438ZM72.4609 19.4688C72.9505 19.4688 73.3776 19.4271 73.7422 19.3438V19.9688C73.3672 20.0938 72.9349 20.1562 72.4453 20.1562C71.6953 20.1562 71.1406 19.9557 70.7812 19.5547C70.4271 19.1536 70.25 18.5234 70.25 17.6641V12.1797H68.9922V11.7266L70.25 11.375L70.6406 9.45312H71.0391V11.5078H73.5312V12.1797H71.0391V17.5547C71.0391 18.2057 71.1536 18.6875 71.3828 19C71.612 19.3125 71.9714 19.4688 72.4609 19.4688ZM76.3516 20H75.5781V11.5078H76.3516V20ZM75.4688 9.14844C75.4688 8.64844 75.6328 8.39844 75.9609 8.39844C76.1224 8.39844 76.2474 8.46354 76.3359 8.59375C76.4297 8.72396 76.4766 8.90885 76.4766 9.14844C76.4766 9.38281 76.4297 9.56771 76.3359 9.70312C76.2474 9.83854 76.1224 9.90625 75.9609 9.90625C75.6328 9.90625 75.4688 9.65365 75.4688 9.14844ZM85.125 20V14.4922C85.125 13.638 84.9453 13.0182 84.5859 12.6328C84.2266 12.2422 83.6693 12.0469 82.9141 12.0469C81.8984 12.0469 81.1536 12.3047 80.6797 12.8203C80.2109 13.3307 79.9766 14.1615 79.9766 15.3125V20H79.2031V11.5078H79.8594L80.0078 12.6719H80.0547C80.6068 11.7865 81.5885 11.3438 83 11.3438C84.9271 11.3438 85.8906 12.3776 85.8906 14.4453V20H85.125ZM95.2656 11.5078V12.0469L93.5078 12.1562C93.9766 12.7396 94.2109 13.3802 94.2109 14.0781C94.2109 14.8958 93.9375 15.5599 93.3906 16.0703C92.849 16.5755 92.1198 16.8281 91.2031 16.8281C90.8177 16.8281 90.5469 16.8125 90.3906 16.7812C90.0833 16.9427 89.849 17.1328 89.6875 17.3516C89.526 17.5703 89.4453 17.8021 89.4453 18.0469C89.4453 18.3177 89.5469 18.5156 89.75 18.6406C89.9583 18.7656 90.3047 18.8281 90.7891 18.8281H92.2734C93.1953 18.8281 93.901 19.0156 94.3906 19.3906C94.8802 19.7604 95.125 20.3099 95.125 21.0391C95.125 21.9349 94.7604 22.625 94.0312 23.1094C93.3073 23.599 92.2734 23.8438 90.9297 23.8438C89.862 23.8438 89.0339 23.638 88.4453 23.2266C87.862 22.8151 87.5703 22.2422 87.5703 21.5078C87.5703 20.9245 87.75 20.4401 88.1094 20.0547C88.474 19.6693 88.9661 19.4062 89.5859 19.2656C89.3307 19.1562 89.125 19.0026 88.9688 18.8047C88.8177 18.6016 88.7422 18.3698 88.7422 18.1094C88.7422 17.5417 89.1042 17.0417 89.8281 16.6094C89.3333 16.4062 88.9479 16.0885 88.6719 15.6562C88.3958 15.2188 88.2578 14.7188 88.2578 14.1562C88.2578 13.3073 88.526 12.6276 89.0625 12.1172C89.6042 11.6016 90.3333 11.3438 91.25 11.3438C91.8073 11.3438 92.2396 11.3984 92.5469 11.5078H95.2656ZM88.3906 21.4375C88.3906 22.6042 89.2578 23.1875 90.9922 23.1875C93.2214 23.1875 94.3359 22.4766 94.3359 21.0547C94.3359 20.5443 94.1615 20.1745 93.8125 19.9453C93.4635 19.7161 92.8984 19.6016 92.1172 19.6016H90.7266C89.1693 19.6016 88.3906 20.2135 88.3906 21.4375ZM89.0391 14.1562C89.0391 14.8125 89.237 15.3229 89.6328 15.6875C90.0339 16.0469 90.5677 16.2266 91.2344 16.2266C91.9427 16.2266 92.4844 16.0469 92.8594 15.6875C93.2396 15.3281 93.4297 14.8073 93.4297 14.125C93.4297 13.401 93.2344 12.8594 92.8438 12.5C92.4583 12.1354 91.9167 11.9531 91.2188 11.9531C90.5417 11.9531 90.0078 12.1484 89.6172 12.5391C89.2318 12.9245 89.0391 13.4635 89.0391 14.1562Z" fill="#477FB5"/>
<path d="M53.4961 40H50.4785V33.8379H44.8242V40H41.7969V25.7227H44.8242V31.3184H50.4785V25.7227H53.4961V40ZM65.332 40H57.1094V25.7227H65.332V28.2031H60.1367V31.3379H64.9707V33.8184H60.1367V37.5H65.332V40ZM68.3203 40V25.7227H71.3477V37.5H77.1387V40H68.3203ZM82.6562 32.4414H83.6523C84.5833 32.4414 85.2799 32.2591 85.7422 31.8945C86.2044 31.5234 86.4355 30.9863 86.4355 30.2832C86.4355 29.5736 86.2402 29.0495 85.8496 28.7109C85.4655 28.3724 84.86 28.2031 84.0332 28.2031H82.6562V32.4414ZM89.4922 30.1758C89.4922 31.7122 89.0104 32.8874 88.0469 33.7012C87.0898 34.515 85.7259 34.9219 83.9551 34.9219H82.6562V40H79.6289V25.7227H84.1895C85.9212 25.7227 87.2363 26.097 88.1348 26.8457C89.0397 27.5879 89.4922 28.6979 89.4922 30.1758Z" fill="#477FB5"/>
</svg>
