<svg width="148" height="148" viewBox="0 0 148 148" fill="none" xmlns="http://www.w3.org/2000/svg">
<path fill-rule="evenodd" clip-rule="evenodd" d="M8.63215 108.579C6.61104 104.796 4.92551 100.844 3.59491 96.7672L3.59138 96.7631C-0.986168 82.6113 -1.19252 67.4083 2.99923 53.1374C7.19098 38.8665 15.5862 26.1903 27.0898 16.7624C38.5933 7.33451 52.6711 1.59265 67.4867 0.285867C82.3022 -1.02091 97.1677 2.16805 110.144 9.43675C110.157 9.4546 110.171 9.47246 110.185 9.49032C126.555 18.7057 138.831 33.7751 144.548 51.6716C145.219 53.784 145.795 55.9341 146.273 58.1221L146.286 58.1473C149.097 70.982 148.441 84.3338 144.386 96.8311C140.33 109.328 133.021 120.521 123.209 129.259C113.398 137.997 101.437 143.966 88.5554 146.552C75.6741 149.138 62.3366 148.248 49.9128 143.974C47.8005 143.248 45.7324 142.427 43.7083 141.511C28.6869 134.731 16.3403 123.157 8.60449 108.604C11.9311 111.327 15.4888 113.756 19.2371 115.861C25.3378 123.835 33.0987 130.389 41.9824 135.067C41.1672 131.355 40.6428 127.585 40.414 123.792C40.3174 122.271 40.2691 120.743 40.2691 119.206V118.576C40.4303 99.0601 48.2971 80.3988 62.1554 66.6577C76.0138 52.9166 94.7407 45.2093 114.256 45.2149C117.555 45.2012 120.85 45.4117 124.12 45.8449C123.399 36.7691 120.885 27.9698 116.768 19.9401C104.442 10.1821 89.1488 4.93169 73.4274 5.06038C57.6972 5.18915 42.4843 10.6953 30.3154 20.6644C18.1464 30.6334 9.75356 44.4655 6.5308 59.8634C3.30843 75.2594 5.44871 91.2944 12.5962 105.306L12.6005 105.309C14.4953 109.015 16.726 112.538 19.2647 115.835C15.5164 113.73 11.9588 111.302 8.63215 108.579ZM121.166 71.9804C122.965 66.2616 124.006 60.3319 124.265 54.3425L103.932 71.9804H121.166ZM114.256 50.2228C110.393 50.2223 106.537 50.5468 102.729 51.1929L100.55 68.2575L120.952 50.5567C118.747 50.3425 116.517 50.2228 114.256 50.2228ZM109.507 93.9836C113.583 88.828 116.901 83.1155 119.358 77.0198H98.1498L84.5694 88.8057L109.507 93.9836ZM97.5136 52.2701C93.1548 53.3657 88.9142 54.8869 84.8528 56.8118L81.2561 85.0261L94.8303 73.2024L97.5136 52.2701ZM91.8887 109.788C96.9865 106.59 101.645 102.74 105.746 98.3364L79.8137 92.9443L65.8931 105.02L91.8887 109.788ZM55.3865 120.251C65.5785 120.261 75.6446 118 84.8528 113.631L60.9862 109.253L48.6908 119.918C50.8954 120.132 53.1315 120.251 55.3865 120.251ZM79.3665 59.7221C75.0679 62.2585 71.0554 65.2512 67.3985 68.6481L62.1515 101.568L75.4926 89.9584L79.3665 59.7221ZM56.2369 106.708L61.276 75.0985C51.6107 86.6565 46.0152 101.073 45.3523 116.125L56.2369 106.708ZM47.8719 137.789C56.1584 141.198 65.0332 142.948 73.9935 142.941L73.9872 142.904C84.6294 142.902 95.1269 140.437 104.658 135.702C114.189 130.968 122.495 124.091 128.925 115.611C135.356 107.131 139.736 97.2772 141.724 86.8218C143.712 76.3664 143.254 65.5927 140.384 55.3441C139.8 53.2444 139.118 51.1929 138.337 49.1897C135.402 41.5987 131.148 34.5867 125.771 28.4778C127.688 34.3753 128.848 40.4926 129.222 46.6826C129.323 48.2008 129.367 49.7315 129.367 51.2685V51.8984C129.18 71.4016 121.308 90.0438 107.461 103.779C93.6137 117.513 74.9084 125.232 55.4054 125.259C52.1048 125.273 48.8071 125.062 45.535 124.629C45.8811 129.082 46.6638 133.489 47.8719 137.789Z" fill="#068DAA"/>
</svg>
